<svg xmlns="http://www.w3.org/2000/svg" xmlns:xlink="http://www.w3.org/1999/xlink" viewBox="0,0,256,256" width="240px" height="240px" fill-rule="nonzero"><g fill="#2c2a38" fill-rule="nonzero" stroke="none" stroke-width="1" stroke-linecap="butt" stroke-linejoin="miter" stroke-miterlimit="10" stroke-dasharray="" stroke-dashoffset="0" font-family="none" font-weight="none" font-size="none" text-anchor="none" style="mix-blend-mode: normal"><g transform="scale(10.66667,10.66667)"><path d="M1.9375,1.9375l-0.65625,1.15625l3.40625,1.5625c0.10156,-0.16797 0.23047,-0.33984 0.34375,-0.5zM22.0625,1.9375l-3.09375,2.21875c0.11328,0.16016 0.24219,0.33203 0.34375,0.5l3.40625,-1.59375zM12,2c-3.86719,0 -7,3.13281 -7,7c0,4.37891 4,5.91016 4,10l6,-1.0625c0,-3.30078 4,-4.55859 4,-8.9375c0,-3.86719 -3.13281,-7 -7,-7zM0,7.84375v1.3125l3.5,-0.3125c0.00391,-0.21484 0.01172,-0.41406 0.03125,-0.625zM24,7.84375l-3.53125,0.375c0.01953,0.21094 0.02734,0.41016 0.03125,0.625l3.5,0.3125zM4.3125,12.5625l-3.03125,1.34375l0.65625,1.15625l2.6875,-1.875c-0.10937,-0.19531 -0.21484,-0.41406 -0.3125,-0.625zM19.65625,12.5625c-0.10547,0.20703 -0.19922,0.40234 -0.3125,0.59375l2.71875,1.9375l0.65625,-1.1875zM14.40625,18.5l-5,1c-0.27734,0.05078 -0.45703,0.31641 -0.40625,0.59375c0.05078,0.27734 0.31641,0.45703 0.59375,0.40625l5,-1c0.27734,-0.05078 0.45703,-0.31641 0.40625,-0.59375c-0.05078,-0.27734 -0.31641,-0.45703 -0.59375,-0.40625zM14.40625,20l-5,1c-0.27734,0.05078 -0.45703,0.31641 -0.40625,0.59375c0.05078,0.27734 0.31641,0.45703 0.59375,0.40625l5,-1c0.27734,-0.05078 0.45703,-0.31641 0.40625,-0.59375c-0.05078,-0.27734 -0.31641,-0.45703 -0.59375,-0.40625zM13.5,22l-3,0.5c0,0.82813 0.67188,1.5 1.5,1.5c0.82813,0 1.5,-0.5625 1.5,-2z"></path></g></g></svg>